<svg xmlns="http://www.w3.org/2000/svg" viewBox="0 0 24 24" width="24" height="24"><title>add user</title><g class="nc-icon-wrapper" stroke-linecap="round" stroke-linejoin="round" stroke-width="2" fill="#080606" stroke="#080606"><path data-cap="butt" fill="none" stroke="#080606" stroke-miterlimit="10" d="M11,13 c-2.824,0-5.329,0.638-6.975,1.193C2.81,14.604,2,15.749,2,17.032V21c0,0,9.958,0,10,0"/> <path fill="none" stroke="#080606" stroke-miterlimit="10" d="M11,13L11,13 c-2.761,0-5-3.239-5-6V6c0-2.761,2.239-5,5-5h0c2.761,0,5,2.239,5,5v1C16,9.761,13.761,13,11,13z"/> <line data-color="color-2" fill="none" stroke-miterlimit="10" x1="19" y1="16" x2="19" y2="22"/> <line data-color="color-2" fill="none" stroke-miterlimit="10" x1="16" y1="19" x2="22" y2="19"/></g></svg>