<svg xmlns="http://www.w3.org/2000/svg" viewBox="0 0 24 24" width="24" height="24"><title>admin</title><g class="nc-icon-wrapper" stroke-linecap="round" stroke-linejoin="round" stroke-width="2" fill="#080606" stroke="#080606"><path data-cap="butt" fill="none" stroke="#080606" stroke-miterlimit="10" d="M11,13 c-2.824,0-5.329,0.638-6.975,1.193C2.81,14.604,2,15.749,2,17.032V21c0,0,7.958,0,8,0"/> <rect data-color="color-2" x="15" y="18" fill="none" stroke-miterlimit="10" width="8" height="5"/> <path data-color="color-2" fill="none" stroke-miterlimit="10" d="M17,18v-3 c0-1.1,0.9-2,2-2l0,0c1.1,0,2,0.9,2,2v3"/> <path fill="none" stroke="#080606" stroke-miterlimit="10" d="M11,13L11,13 c-2.761,0-5-3.239-5-6V6c0-2.761,2.239-5,5-5h0c2.761,0,5,2.239,5,5v1C16,9.761,13.761,13,11,13z"/></g></svg>