<svg xmlns="http://www.w3.org/2000/svg" viewBox="0 0 16 16" width="16" height="16"><title>c pub</title><g class="nc-icon-wrapper" fill="#080606"><path fill="#080606" d="M8,0C3.6,0,0,3.6,0,8s3.6,8,8,8s8-3.6,8-8S12.4,0,8,0z M4.5,12.9c0-0.9,1.6-1.4,1.6-1.4 C6.7,11.8,7.3,12,8,12s1.3-0.2,1.9-0.5c0,0,1.6,0.6,1.6,1.4C10.5,13.6,9.3,14,8,14S5.5,13.6,4.5,12.9z M10,8c0,1.1-0.9,2-2,2 S6,9.1,6,8V7c0-1.1,0.9-2,2-2s2,0.9,2,2V8z M13,11.4c-0.6-0.9-1.6-1.3-1.6-1.3C11.8,9.5,12,8.8,12,8V7c0-2.2-1.8-4-4-4S4,4.8,4,7v1 c0,0.8,0.2,1.5,0.6,2.1c0,0-1.1,0.4-1.6,1.3c-0.6-1-1-2.1-1-3.4c0-3.3,2.7-6,6-6s6,2.7,6,6C14,9.2,13.6,10.4,13,11.4z"/></g></svg>