<svg xmlns="http://www.w3.org/2000/svg" width="556" height="556" viewBox="0 0 556 556">
  <g id="Group_391" data-name="Group 391" transform="translate(8248 -1373)">
    <circle id="Ellipse_2" data-name="Ellipse 2" cx="278" cy="278" r="278" transform="translate(-8248 1373)" fill="#ddd" opacity="0.538"/>
    <g id="Group_390" data-name="Group 390" transform="translate(-159 -100)">
      <path id="Path_201" data-name="Path 201" d="M-7855.687,1495.43l61.389,157.733v195.595h-476.07V1653.163l67.421-157.733Z" transform="translate(222 122)" fill="#d5d5d5"/>
      <g id="empty-box" transform="translate(-8059 1605.5)">
        <path id="Path_197" data-name="Path 197" d="M248,288.5a112,112,0,0,1-112-112H8v192H488v-192H360A112,112,0,0,1,248,288.5Zm-160,48" fill="#c1c1c1" opacity="0.998"/>
        <g id="Group_389" data-name="Group 389">
          <path id="Path_198" data-name="Path 198" d="M495.48,173.652l-64-168A8,8,0,0,0,424,.5H72a8,8,0,0,0-7.48,5.152l-64,168a8.067,8.067,0,0,0-.465,2.559c0,.105-.055.184-.055.289v192a8,8,0,0,0,8,8H488a8,8,0,0,0,8-8v-192c0-.105-.055-.184-.055-.289A8.067,8.067,0,0,0,495.48,173.652ZM77.512,16.5H418.488l57.9,152H360a8,8,0,0,0-8,8,104,104,0,0,1-208,0,8,8,0,0,0-8-8H19.609ZM480,360.5H16v-176H128.266a120,120,0,0,0,239.469,0H480Zm0,0" fill="#989898"/>
          <path id="Path_199" data-name="Path 199" d="M56,328.5H48v-24a8,8,0,0,0-16,0v32a8,8,0,0,0,8,8H56a8,8,0,0,0,0-16Zm0,0" fill="#989898"/>
          <path id="Path_200" data-name="Path 200" d="M104,328.5H88a8,8,0,0,0,0,16h16a8,8,0,0,0,0-16Zm0,0" fill="#989898"/>
        </g>
      </g>
    </g>
  </g>
</svg>
