<svg xmlns="http://www.w3.org/2000/svg" viewBox="0 0 32 32" width="32" height="32"><title>file docx</title><g class="nc-icon-wrapper" stroke-linecap="round" stroke-linejoin="round" stroke-width="2" fill="#080606" stroke="#080606"><polyline data-cap="butt" fill="none" stroke="#080606" stroke-miterlimit="10" points="20,1 20,9 28,9 "/> <polyline fill="none" stroke="#080606" stroke-miterlimit="10" points="28,13 28,9 20,1 4,1 4,13 "/> <polyline fill="none" stroke="#080606" stroke-miterlimit="10" points="4,27 4,31 28,31 28,27 "/> <path data-color="color-2" data-stroke="none" d="M9.9,20c0,1-0.3,1.7-0.8,2.2S7.8,23,6.9,23H5v-5.7h2c0.9,0,1.6,0.2,2.1,0.7 S9.9,19.1,9.9,20z M8.3,20.1c0-0.5-0.1-0.9-0.3-1.2S7.4,18.5,7,18.5H6.5v3.2h0.3c0.5,0,0.8-0.1,1-0.4S8.3,20.6,8.3,20.1z" stroke-linejoin="miter" stroke-linecap="square" stroke="none"/> <path data-color="color-2" data-stroke="none" d="M16.2,20.1c0,1-0.2,1.7-0.7,2.2s-1.2,0.8-2.1,0.8c-0.9,0-1.6-0.3-2.1-0.8 s-0.7-1.2-0.7-2.2c0-1,0.2-1.7,0.7-2.2s1.2-0.8,2.1-0.8c0.9,0,1.6,0.2,2.1,0.7S16.2,19.2,16.2,20.1z M12.3,20.1 c0,1.1,0.4,1.7,1.2,1.7c0.4,0,0.7-0.1,0.9-0.4s0.3-0.7,0.3-1.3c0-0.6-0.1-1-0.3-1.3s-0.5-0.4-0.9-0.4C12.7,18.5,12.3,19,12.3,20.1z" stroke-linejoin="miter" stroke-linecap="square" stroke="none"/> <path data-color="color-2" data-stroke="none" d="M19.8,18.5c-0.4,0-0.7,0.2-0.9,0.5s-0.3,0.7-0.3,1.2c0,1.1,0.4,1.6,1.3,1.6 c0.3,0,0.5,0,0.7-0.1s0.5-0.2,0.7-0.3v1.3c-0.5,0.2-1,0.3-1.6,0.3c-0.9,0-1.5-0.2-2-0.8S17,21.1,17,20.2c0-0.6,0.1-1.1,0.3-1.6 s0.5-0.8,1-1s0.9-0.4,1.5-0.4c0.6,0,1.2,0.1,1.8,0.4l-0.5,1.2c-0.2-0.1-0.4-0.2-0.6-0.2S20,18.5,19.8,18.5z" stroke-linejoin="miter" stroke-linecap="square" stroke="none"/> <path data-color="color-2" data-stroke="none" d="M27.6,23h-1.8l-1.1-1.8L23.6,23h-1.7l1.9-2.9L22,17.3h1.7l1,1.8l1-1.8h1.8 l-1.8,2.9L27.6,23z" stroke-linejoin="miter" stroke-linecap="square" stroke="none"/> <rect x="1" y="13" fill="none" stroke="#080606" stroke-miterlimit="10" width="30" height="14"/></g></svg>